<?xml version="1.0" encoding="utf-8"?>
<!-- Generator: Adobe Illustrator 23.0.2, SVG Export Plug-In . SVG Version: 6.00 Build 0)  -->
<svg version="1.1" id="Layer_1" xmlns="http://www.w3.org/2000/svg" xmlns:xlink="http://www.w3.org/1999/xlink" x="0px" y="0px"
	 viewBox="0 0 509.3 102.2" style="enable-background:new 0 0 509.3 102.2;" xml:space="preserve">
<style type="text/css">
	.st0{fill:#3B5999;}
	.st1{fill:#FFFFFF;}
</style>
<rect x="-291.8" y="-20" class="st0" width="1117" height="143"/>
<path class="st1" d="M37.7,0v15.8H29c0,0-7.9-1.1-7.9,6.5v12.4l0,0v17.2l0,0v48H1.9l0.6-65.2l0,0l0,0l0,0l0,0c0,0-1.7-22.3,5.4-28.8
	C14.9-0.6,24.2,0,24.2,0H37.7z"/>
<path class="st1" d="M84,35v8.6c-4.9-6.4-11.7-10.4-19.3-10.4c-14.9,0-27,13.1-27,34.5c0,21.2,12.1,34.5,27,34.5
	c7.6,0,14.6-4.1,19.5-10.6L84,99.9h18.5V35H84z M83,74.1c0,6.5-5.6,12.7-12.4,12.7c-6.9,0-12.4-6.2-12.4-12.7V61.7
	c0-6.5,5.6-12.7,12.4-12.7C77.4,49,83,55.1,83,61.7V74.1z"/>
<path class="st1" d="M253.5,100.3v-8.6c4.9,6.4,11.7,10.4,19.3,10.4c14.9,0,27-13.1,27-34.5c0-21.2-12.1-34.5-27-34.5
	c-7.6,0-14.6,4.1-19.5,10.6l0.1-42.9l-19.2,2.2V100L253.5,100.3z M254.5,61.3c0-6.5,5.6-12.7,12.4-12.7s12.4,6.2,12.4,12.7v12.4
	c0,6.5-5.6,12.7-12.4,12.7s-12.4-6.2-12.4-12.7V61.3z"/>
<path class="st1" d="M144.2,86.4c0,0-14.8,0.8-14.8-18.3v-1c0-19.2,14.8-18.3,14.8-18.3c10-0.1,13.5,3.4,13.5,3.4l4.7-14
	c-8-5.9-32.3-6.9-43.2,3.1c-9.4,8.7-9.4,22.7-9.2,26.3c-0.2,3.6-0.2,17.7,9.2,26.3c10.9,10,35.1,9,43.2,3.1l-4.7-14
	C157.8,83,154.3,86.6,144.2,86.4z"/>
<path class="st1" d="M226.2,74.5c0,0,7.8-40.6-29.3-40.9c-37.1-0.2-31.7,36.8-31.7,36.8c0.8,22.4,11.1,28.9,28.8,31
	c17.6,2.1,31-4.7,31-4.7l-4.1-13.1c0,0-14.3,4.4-25.5,3.4c-11.3-1-10.4-12.6-10.4-12.6H226.2z M184.6,61.4c0,0-1-14.4,12-14.4
	c13,0,12,14.4,12,14.4H184.6z"/>
<path class="st1" d="M338,34.1c-24.2,0-32.3,14.6-32.3,34.1c0,20.7,10.5,34.1,32.3,34.1c17.8,0,32.3-12,32.3-34.1
	C370.3,49.3,361,34.1,338,34.1z M350.6,73.7c0,6.5-5.7,12.7-12.8,12.7c-7,0-12.8-6.2-12.8-12.7V61.3c0-6.5,5.7-12.7,12.8-12.7
	c7,0,12.8,6.2,12.8,12.7V73.7z"/>
<path class="st1" d="M409.3,34.1c-24.2,0-32.3,14.6-32.3,34.1c0,20.7,10.5,34.1,32.3,34.1c17.8,0,32.3-12,32.3-34.1
	C441.6,49.3,432.3,34.1,409.3,34.1z M421.9,73.7c0,6.5-5.7,12.7-12.8,12.7c-7,0-12.8-6.2-12.8-12.7V61.3c0-6.5,5.7-12.7,12.8-12.7
	c7,0,12.8,6.2,12.8,12.7V73.7z"/>
<polygon class="st1" points="509.3,100.2 488.2,67.5 508.3,34.8 487.7,34.8 468,64.1 468,0.6 448.6,2.6 448.6,100.2 468,100.2 
	468,67 489.2,100.2 "/>
<rect y="61.4" class="st0" width="509.3" height="13.9"/>
</svg>
